<?xml version="1.0" encoding="utf-8"?>
<!-- Generator: Adobe Illustrator 22.0.1, SVG Export Plug-In . SVG Version: 6.00 Build 0)  -->
<svg version="1.1" id="Capa_1" xmlns="http://www.w3.org/2000/svg" xmlns:xlink="http://www.w3.org/1999/xlink" x="0px" y="0px"
	 viewBox="0 0 400 60" style="enable-background:new 0 0 400 60;" xml:space="preserve">
<style type="text/css">
	.st0{fill-rule:evenodd;clip-rule:evenodd;fill:#998543;}
	.st1{fill:#998543;}
</style>
<g>
	<g>
		<g>
			<g>
				<g>
					<g>
						<g>
							<path class="st0" d="M228.5,2.3c0.5,1,0.9,1.9,0.9,3.4v32.7h-42.5V2.7c-1.3,0.1-1.5,0.4-3,0.4h-1.7c-1.6,0-2.4-0.4-3.4-0.9
								c0.2,1,0.4,1,0.4,2.2V56c0,1.2-0.2,1.2-0.4,2.2c1.5-0.4,2-0.9,3.9-0.9h46l8.6,0.6c-0.1-1.1-0.4-1.3-0.4-2.8V5.3
								c0-1.5,0.3-1.7,0.4-3c-1,0.5-1.9,0.9-3.4,0.9h-1.3C230.5,3.1,230,2.6,228.5,2.3 M186.8,45.7h42.5V50h-42.5V45.7z"/>
							<path class="st0" d="M104.8,2.3c0.4,0.9,0.9,3.4,0.9,4.7v20.6l-0.7,7.3l6.7-1l36.5,0.2l0.5,6.4l-0.1,6.4c0,1.5-0.3,1.7-0.4,3
								h-41.2c-1.2,0-1.2-0.2-2.2-0.4c0.2,1,0.4,1,0.4,2.1V56c0,1.2-0.2,1.2-0.4,2.2l6.4-1l38.7,0.2l6.5,0.8c-0.2-0.9-0.5-0.9-0.5-2
								V16.4c0-1.1,0.2-1.2,0.4-2.1c-1,0.2-1,0.4-2.1,0.4h-41.3v-4.3H152c1.7,0,3.2,0.3,4.3,0.8c-0.1-1.3-0.4-1.5-0.4-3V4.4
								c0-1.2,0.2-1.2,0.4-2.2l-5.1,1l-42.1-0.1C107.4,3.1,105.9,2.8,104.8,2.3 M112.9,22h35.2v4.7h-35.2V22z"/>
							<path class="st0" d="M267.6,58.1c-1-2,1.9-21,2.6-24.1h7.7l1.4,11.1l-0.1,1.3c1.6-0.3,2-0.8,3.9-0.8h10.3
								c1.8,0,2.3,0.5,3.9,0.8v-2.1l1.4-10.3l8,0l2.9,23.6l4.4-0.5l1.3,0.1c1.3,0,1.7,0.4,2.6,0.9c-1.9-8.2-3.7-18.1-4.3-27.5
								c-0.6-8.9-3.4-18.2-3.4-27.9l-5.6,0.5l-3.9-0.1l-5.6-0.5l-1.1,12.6l-11.3,0l-1-9.9l0.1-3c-1.5,0.4-2,0.9-3.9,0.9h-5.6l-6-0.7
								l0.5-0.1l-7.4,55.4c0.6-0.3,0.6-0.5,1.7-0.5h1.7C264.9,57.3,265.9,57.7,267.6,58.1 M273.2,10.4l1.7,0l0.5,4.7l-2.8,0
								L273.2,10.4z M301.6,10.4l2.1,0l0.5,4.7H301L301.6,10.4z M283.9,22h9l-0.8,4.7l-7.8,0c-0.2-1-0.4-1-0.4-2.1V22z M271.5,22
								h5.1l0.5,4.7h-6.2L271.5,22z M300.3,22h4.7l0.5,4.7h-5.8L300.3,22z M285.2,33.6h6l-0.5,5.2l-4.2,0c-1,0-1.3-0.3-1.3-1.3V33.6
								z"/>
							<path class="st0" d="M362,34.5l5.2-0.4h6.9c1.6,0,2.4,0.4,3.4,0.9c-0.2-1-1-3.3-0.9-4.3l0.5-4.4l-4.7,0.5l-5.6,0.2l-4.8-1
								L362,34.5z"/>
							<path class="st0" d="M398.8,2.2l-5.4,1.1l-49-0.2c-1.7,0-3.2-0.3-4.3-0.9l1,8.1l-0.2,43c0,2-0.5,3.1-0.9,4.7
								c1.5-0.4,2-0.9,3.9-0.9h48.5L399,58c-0.5-0.9-0.9-1.8-0.9-3.3L398,7.4L398.8,2.2z M348.3,10.4h42.5v39.9h-42.5V10.4z"/>
						</g>
					</g>
				</g>
			</g>
		</g>
	</g>
	<g>
		<g>
			<path class="st1" d="M40.6,50.3c-0.5,0.3-1.6,0.2-2,0.2l0,0.7c0.1,0,0.2,0,0.5,0c0.5,0,1.4,0,1.9-0.3L40.6,50.3z"/>
			<path class="st1" d="M39.3,51.9l0.1,0.7c0.1,0,1.4-0.2,2.1-1l-0.5-0.4C40.5,51.6,39.6,51.9,39.3,51.9z"/>
			<path class="st1" d="M41,48.5l0.1,0.4c0.2,0,0.8-0.2,1.2-0.3L42,48.2C41.8,48.3,41.3,48.4,41,48.5z"/>
			<path class="st1" d="M41.8,47.1l-0.4-0.6c-1.2,0.8-2,0.6-2,0.6l-0.2,0.6c0,0,0.2,0.1,0.4,0.1C40.1,47.8,40.8,47.7,41.8,47.1z"/>
		</g>
		<path class="st1" d="M45.5,47.6l-0.1-0.5c-1.1,0.2-1.5-0.1-1.5-0.1l-0.3,0.4c0,0,0.1,0.1,0.3,0.2C44.1,47.7,44.7,47.8,45.5,47.6z"
			/>
		<path class="st1" d="M46.6,49.7c0.4,0.1,1.3-0.1,1.6-0.2l0.2,0.5c0,0-0.2,0.1-0.4,0.1c-0.4,0.1-1.1,0.2-1.5,0.1L46.6,49.7z"/>
		<path class="st1" d="M47.9,50.8l0,0.5c0,0-1.1,0.1-1.8-0.4l0.3-0.4C46.9,50.8,47.7,50.8,47.9,50.8z"/>
		<path class="st1" d="M45.1,49.7c-0.4,0-1.2-0.4-1.5-0.5l-0.3,0.5c0,0,0.2,0.1,0.4,0.2c0.4,0.2,1,0.4,1.4,0.4L45.1,49.7z"/>
		<path class="st1" d="M43.8,50.5l0.3,0.6c0,0,0.3,0.2,1-0.1L45,50.4C44.6,50.6,44.1,50.5,43.8,50.5z"/>
		<path class="st1" d="M45.4,48.5l0,0.3c-0.1,0-0.6,0.1-0.9,0l0.1-0.3C44.7,48.5,45.1,48.5,45.4,48.5z"/>
		<path class="st1" d="M86.4,52.7c0,0-2-2.7-2.6-5.9c0-0.3-0.5-4.1-4.7-7.3l0,0c0,0-3.8-2-4.1-4.9l0,0c-0.1-0.5-2.4-11.1-8.3-13.6
			c-0.1,0-0.3-0.2-0.6-0.6c-0.1-0.3-0.2-0.4-0.3-0.5c-0.2-0.5-0.4-1.1-0.3-1.9c0.1-0.3,0.9-4.7,2-6.3c0,0,0.6-0.9,1.6-0.7l0.3,0.1
			c0.1,0,1.3,0.1,2.1-0.3l0.3-0.1c0.1-0.1,0.9-0.4,1.5,0.4c0,0,0.7,1,1.6,1c0.5,0,1-0.2,1.4-0.7c0.2-0.2,2.4-2.1,3.9-2.3L80,9
			c0.6-0.2,1.7-0.9,1.3-2.2l0,0c0-0.1-0.7-1.5-3.4-0.7l0,0l0,0c-0.1,0.1-2.3,1.4-5-0.2c-0.2-0.1-5-2.6-7.6-2.6c0,0-0.1,0-0.1,0
			c-0.4,0-4-0.3-6.7,3.8c-0.1,0.2-2.6,4.7-3.5,7.6c0,0-1.4,4.7-4.8,6.8c-0.4,0.1-3.3,1-4.2,1.2l-0.1,0l0,0c-0.7,0.3-1.6,1.2-1.8,2.2
			c-0.2,0.1-0.4,0.4-0.9,0.9c-1-3.1-4-4.6-4.4-4.7c-2.4-1.8-2.1-6.4-2.1-6.5l0,0l0,0c-0.3-3.7-1.5-6.5-2.4-8.1
			c-1-1.8-1.8-2.8-1.9-2.9c-1.9-2-5.1-2.9-9.3-2.6c-3,0.2-5.5,0.9-5.7,1C9.2,3.6,3.2,0.9,3.1,0.8c-0.9-0.4-1.5-0.4-1.8,0
			C0.8,1.2,1.1,2.1,1.1,2.2l0,0.1l0.1,0.1c0.5,0.5,1.9,1.5,2,1.6l0.1,0c1.4,0.6,2.7,2.6,2.8,2.6C7.7,9.2,10.1,8,10.1,8l0,0
			c2.3-1.6,7.4,0.4,7.5,0.4l0,0c3.5,1,5.3,0.1,5.3,0l0,0c0.3-0.2,0.6-0.4,0.9-0.3c0.3,0.1,0.5,0.5,0.5,0.7v5.4
			c0.1,2.4-0.9,4.4-1.2,4.9c-0.3,0.1-1.2,0.5-2,1.4c-0.9,1-1.8,2.9-1.2,6.2c0,0.1,0.6,3.6,2.1,6.2l0,0c0,0,0.7,1,1.9,2.5
			c0,0,1.7,1.9,1.6,5.3c0,0.1-0.4,3.1,1.7,6.3c0,0,2.2,3.8,0,7.4c-0.2,0.2-0.8,0.8-0.7,1.5c0.1,0.6,0.7,1.1,1.9,1.5
			c0.2,0.1,1.1,0.5,2.2,0.5c1.3,0,2.2-0.6,2.7-1.8l0-0.1v-0.1c0-0.1,0.1-2.2-0.4-4.6l0-0.1c0,0-0.3-0.8-0.4-2.1
			c0.7,0.2,1.8,0.7,1.8,2.3c-0.1,0.3-0.6,2-0.6,2.5V54l0.2,0.1c0,0,0.1,0.1,0.2,0.3c-0.5,0.3-0.7,0.6-0.8,1
			c-0.1,0.8,0.8,1.4,0.9,1.5l0.1,0c0.7,0.3,1.3,0.5,1.7,0.5c0.3,0,0.5-0.1,0.7-0.2c0.2-0.2,0.3-0.5,0.3-0.7c0.1,0,0.2,0,0.4,0
			c0.4,0,0.9-0.1,1.4-0.4c0.5-0.2,1.8-0.8,2.5-0.8l0.1,0c0,0,1.2-0.2,1.7-1.6l0-0.1l0-0.1c0-0.1-0.1-0.3-0.1-0.3
			c0.1-0.8,0.3-2.2,0.4-2.8c0.2,0.9,0.7,1.3,0.9,1.5c0.6,0.9,1.9,1.3,3.2,1.4c0.1,0.3,0.2,0.8,0.6,1.2c0.4,0.4,1,0.6,1.8,0.6
			c0.2,0,0.3,0,0.5,0l0.3-0.1c0,0,1-0.3,1.4-1.3c0.2-0.6,0.1-1.2-0.3-1.9c0.5-1,0.8-2.1,0.8-2.6c0,0,0.1,0,0.1,0l0.1,0l0.1-0.1
			c0.2-0.2,5.8-5.1,6.5-11.4c0.7,0,1.6,0,1.9-0.3c0,0,0.6-0.5,0.8-1.4c0.1-0.1,0.4-0.7,1.1-0.9c0.7,0.8,4.3,4.5,7.8,6.1
			c0.6,0.5,2.1,1.9,2.6,2.5c0.2,0.2,4.1,5.5,6.3,7.4c0.2,0.2,2.5,2.8,1.8,4.9c-0.4,0.5-0.9,1.1-1,1.2l-0.1,0.1
			c-0.1,0.1-0.6,0.7-0.3,1.4c0.2,0.5,0.7,0.8,1.5,0.9c0.1,0,0.4,0,0.8,0c1.6,0,4.8-0.3,5.3-2.3C88.3,56.8,88.5,55.6,86.4,52.7z
			 M55.6,14.8C56.4,12,59,7.4,59,7.4c1.1-1.6,2.4-2.7,4-3.2c1.2-0.4,1.6-0.4,1.6-0.4l1-0.1c2.4,0,6.9,2.5,7,2.6
			c2.9,1.8,5.3,0.5,5.6,0.3c2-0.5,2.5,0.3,2.5,0.4c0.2,0.9-0.7,1.3-0.9,1.3c-1.8,0.3-4.1,2.4-4.2,2.5l0,0c-0.3,0.3-0.6,0.5-0.9,0.5
			c-0.6,0-1.1-0.7-1.1-0.7c-0.8-1.1-1.8-0.9-2.3-0.6c-1,0.5-1.8,0.3-2.3,0.4c-1.3-0.2-2.1,0.8-2.2,0.9c-1.2,1.7-2.1,6.4-2.1,6.5l0,0
			c0,0.6,0,1,0.1,1.5c-1.1-0.4-2.8-0.4-5.1,0c-2.1,0.4-4,1-4,1c-1.4,0.5-3.1,0.8-4.1,0.9C54.4,18.8,55.5,15,55.6,14.8z M44.3,36
			c-1.9-0.8-5.8,0.4-6,0.5l-0.1,0l0,0c-0.3,0.2-2.4,0.7-4.3,1c0-0.8,0.1-1.7,0.2-2.1l0-0.1c0-0.1,0.1-1.4,0-2.7
			c0.8-0.2,3-0.8,4.1-1.9c0.2-0.1,0.9-0.4,1.5-0.6l0,0l0,0c0.3-0.2,2.4-2.1,3.3-3C43.7,28.1,45.7,31.3,44.3,36z M24.1,7.4
			c-0.5-0.1-1,0-1.5,0.4c-0.2,0.1-1.8,0.8-4.8-0.1c-0.4-0.2-5.5-2.1-8.1-0.3c-0.2,0.1-2,0.8-3.3-1.2C6.4,6.1,5.1,4,3.5,3.3
			C3.3,3.2,2.2,2.4,1.7,1.9c0-0.2-0.1-0.5,0.1-0.6c0.1-0.1,0.5-0.1,1.1,0.2c0.3,0.1,6.3,2.9,14.8,1l0,0c0.1,0,10-3,14.3,1.4
			c0,0,3.4,3.8,4.1,10.6c0,0.3-0.1,2.4,0.5,4.4c-1.7-0.5-2.9-1.4-3.1-1.5c-0.9-1.1-3.8-0.8-4.1-0.8c-1.2,0.1-2.6-0.3-2.8-0.3
			L25,15.4c0-0.4,0-0.9,0-1.3V8.7l0.1-0.1C25,8.5,24.9,7.6,24.1,7.4z M25,16.1l1.4,0.7l0,0c0.1,0,1.6,0.5,3,0.3c1.1-0.1,3,0,3.5,0.6
			l0,0.1c0.1,0.1,1.5,1.2,3.8,1.8c0.4,0.7,0.8,1.4,1.5,1.9l0.1,0c0,0,3.5,1.6,4.3,5c-0.4,0.5-2.2,2.1-3.3,3
			c-0.7,0.3-1.5,0.6-1.5,0.6l-0.1,0l-0.1,0.1c-0.9,1-2.9,1.5-3.7,1.7c0-0.4-0.1-0.7-0.2-1c0-0.2,0-1,0.3-3.4c0-0.2,0.2-3.9-2.2-6.5
			c-1.7-1.8-4.4-2.6-7.8-2.3C24.4,18.3,24.8,17.3,25,16.1z M32.5,51.4c0.4,2.1,0.4,4,0.4,4.4c-0.4,0.9-1.1,1.3-2.1,1.3
			c-1,0-1.9-0.4-1.9-0.4l0,0c-0.9-0.3-1.4-0.6-1.4-1c-0.1-0.4,0.3-0.8,0.5-0.9l0,0l0-0.1c2.4-3.9,0.1-7.9,0-8.1
			c-1.9-2.9-1.6-5.8-1.6-5.9c0.2-3.7-1.7-5.8-1.7-5.8c-1.1-1.3-1.8-2.3-1.9-2.4c-1.4-2.5-2-5.9-2-5.9c-1-5.6,2.5-6.8,2.8-6.9
			c3.5-0.5,6.1,0.2,7.8,2c2.2,2.4,2,5.9,2,6c-0.3,2.8-0.3,3.5-0.3,3.5l0,0.1c0.4,1.5,0.3,3.9,0.3,4.2c-0.3,0.9-0.3,3.3-0.3,3.4
			l0,0.1c0.8,3.5-0.3,6.1-0.3,6.1C31.4,48.3,32.3,51,32.5,51.4z M34.3,49c-0.5-0.4-1.1-0.6-1.6-0.7c0-0.9,0.2-2,0.8-3.2
			c0-0.1,1.1-2.8,0.4-6.5c0-0.1,0-0.2,0-0.3c1.2-0.2,4.1-0.7,4.7-1.1c1.2-0.4,4.2-1.2,5.5-0.5c-0.1,0.2,0,0.5,0,0.5
			c0.1,0.4,0.8,2,1.5,3.1c-0.8,0-2-0.1-2.6-0.4l-0.1,0c-0.1,0-2.3-0.4-3.5,0.7c-0.4,0.2-1.8,1-1.9,1.9l-1.3,1
			c-0.2,0.1-0.7,0.5-0.7,1.9l0,0c0,0,0.2,1.3,0.1,2.2c-0.2,0.3-0.4,0.5-0.5,0.6C34.7,48.3,34.5,48.6,34.3,49z M36.7,56.6
			c-0.1,0.1-0.5,0.2-1.7-0.3c-0.2-0.2-0.6-0.6-0.6-0.9c0-0.2,0.3-0.4,0.5-0.5c0.3,0.3,0.6,0.6,1.2,0.8c0.2,0.2,0.4,0.4,0.7,0.5
			C36.8,56.3,36.8,56.5,36.7,56.6z M41.6,54.5c-1.1,0-2.8,0.9-2.8,0.9l0,0c-1.3,0.8-2.1-0.2-2.2-0.3L36.5,55l-0.2,0
			c-0.8-0.1-1-0.9-1.1-1.1c0-0.5,0.2-1.9,0.3-2.4l0-0.1c0-0.3-0.4-0.5-0.4-0.7l0.7,0.2V52l0.6,0.1c0.8,0.2,1.3,1.1,1.3,1.2
			c0.1,0.2,0.3,0.4,0.5,0.5c0.9,0.5,3.4-0.4,3.8-0.5l0.1,0c0.2-0.1,0.3-0.1,0.4-0.1c0,0,0.1,0.1,0.1,0.2
			C42.3,54.3,41.7,54.4,41.6,54.5z M43.1,49.3c-0.3,0.2-0.9,0.2-1.2,0.2l0,0.7c0,0,0.1,0,0.2,0c0.2,0,0.6,0,0.9-0.1
			c0,0.2,0,0.4-0.1,0.6c-0.2,0.1-0.4,0.1-0.4,0.1l0,0.7c0,0,0,0,0,0c0.1,0,0.2,0,0.3,0c0,0.4-0.1,0.7-0.1,1.1c-0.3,0-0.5,0-0.9,0.2
			c-1.2,0.4-2.7,0.8-3.1,0.6c0,0,0,0,0,0l-0.3,0c0-0.1-0.8-1.2-1.7-1.7v-1.2l-1.6-0.4c-0.1,0-0.2-0.2-0.2-0.4c0-0.1,0.1-0.4,0.7-0.9
			l0.1-0.1c0,0,2.3-2.9,4.3-3.3l0,0c0.1,0,1.8-0.5,2.6,1.5C42.7,46.6,43.2,47.9,43.1,49.3z M40.1,44.3c-0.1,0-0.2,0-0.3,0.1
			c-1.3,0.3-2.6,1.4-3.5,2.3c0-0.7-0.1-1.4-0.1-1.5c0-1,0.3-1.3,0.3-1.3h0l1.2-0.9c0.1,0.1,0.3,0.3,0.6,0.4c0,0,0.8,0.3,2,0.6l0,0
			c1,0.2,2,0.2,2,0.2c2.5,0.5,2.9,1.2,2.9,1.2c-1.2-0.2-1.8,0.3-1.8,0.3C42.2,44.2,40.1,44.3,40.1,44.3z M51.7,53.3
			c-0.2,0.6-0.9,0.9-1.1,1c-0.8,0.1-1.3-0.1-1.7-0.4c-0.2-0.2-0.4-0.5-0.4-0.7c0.1,0,0.2,0,0.3,0c1,0,1.7-0.1,1.8-0.1l0.1,0
			c0.4-0.1,0.7-0.4,1-0.7C51.8,52.7,51.8,53,51.7,53.3z M50.5,52.4c-1.2,0.2-4.5,0.3-5.3-1c0,0-0.1-0.1-0.1-0.1l0,0c0,0,0,0,0,0
			c-1.6-1.7-1.7-4.8-1.7-4.8h0c0-0.1,0.1-0.2,0.1-0.2c0.1-0.1,0.3-0.1,0.4-0.2c0,0,0.1-0.1,0.1-0.1s0.9-0.2,1.7,0.1
			c0.1,0,0.2,0.1,0.3,0.1l0.1,0l1,1.1c0,0,0,0,0,0c0.1,0.1,0.2,0.2,0.4,0.4c0.1,0.1,0.2,0.1,0.3,0.2c1.1,0.9,2.3,1.1,2.8,1.1
			c0.3,0,0.6,0,0.8,0c0.6-0.1,0.5,0,1-0.1C52,50,51.5,52,50.5,52.4z M52.8,48.4c-0.5,0.1-1.8,0.4-3.3,0c-0.9-0.3-2.5-1.9-3.1-2.6
			c-1.6-1.7-3.9-2.4-4-2.4l-1-0.1c-2.2,0-2.9-0.7-2.9-0.7c-0.1-0.1-0.4-0.1-0.4-0.3c0-0.4,0.9-1,1.6-1.4l0,0l0,0
			c0.8-0.8,2.6-0.6,2.9-0.6c0.9,0.4,2.8,0.5,3.3,0.5c0.2,0.2,0.3,0.4,0.4,0.4c0.1,0.1,2.8,1.6,7.9,2.1c0,0,0.1,0,0.1,0
			c0.2,0,0.3-0.2,0.3-0.3c0-0.2-0.2-0.3-0.3-0.3c0,0,0,0,0,0c-4.9-0.5-7.5-2-7.5-2c-0.4-0.3-1.5-2.4-2.1-3.9c2-5.6-0.5-9.4-1.2-10.3
			c0.2-0.3,0.4-0.6,0.6-0.8c0,0,0,0,0,0.1l0,0.1c0,0.1,1.2,1.7,4,3.3c0.2,0.2,2.8,2,3.7,3.1c0.1,0.1,1.4,1.8,3.8,2.5
			c0.2,0.1,2.3,1,3,2.1c0.1,0.2,0.3,0.6,0.3,0.6C58.3,43.2,53.4,47.9,52.8,48.4z M61.7,35.6L61.7,35.6c-0.2,0.7-0.6,1.1-0.6,1.2
			c-0.1,0.1-0.9-0.1-1.6-0.2l-0.6-0.8c-0.9-0.9-2.2-1.5-2.3-1.6L55.8,34c-2.2-0.7-3.5-2.2-3.5-2.2c-0.9-1.2-3.7-3.1-3.8-3.2l0,0
			c-2.5-1.4-3.6-2.9-3.8-3.1c-0.5-1.2,1.1-2.2,1.4-2.3c1-0.2,4.1-1.1,4.2-1.2l0.1,0c0,0,0,0,0,0c0.5,0,3.2-0.2,5.4-1.1
			c2-0.6,7.5-2,9.2-0.7c0.1,0.2,0.2,0.3,0.3,0.5c0.2,0.5,0.2,1.3-0.6,2.5c-0.2,0.2-3.7,4.4-1.7,11.2C62.1,34.7,61.7,35.6,61.7,35.6z
			 M87.5,56.8L87.5,56.8L87.5,57c-0.3,1.8-4,1.9-5.4,1.8c-0.5-0.1-0.9-0.2-1-0.5c-0.1-0.2,0.1-0.6,0.2-0.7c0.2-0.2,0.8-1,1.1-1.3
			l0,0l0-0.1c0.9-2.5-1.8-5.5-2-5.6l0,0c-2.2-1.9-6.2-7.3-6.2-7.3c-0.5-0.9-2.6-2.6-2.7-2.7l-0.1,0c-3.5-1.6-7.2-5.6-7.7-6.1
			c-1.1-3.5-0.6-6.2-0.1-7.9c0.6-1.9,1.5-2.9,1.5-3c0.6-0.8,0.8-1.5,0.9-2.1c0.1,0,0.1,0.1,0.1,0.1l0,0c2.9,1.2,4.9,4.7,6.1,7.5
			c1.2,2.9,1.8,5.5,1.9,5.7c0.3,3.1,4.1,5.2,4.5,5.4c4.1,3.2,4.5,6.8,4.5,6.9l0,0c0.7,3.4,2.7,6.1,2.7,6.2
			C87.9,55.9,87.5,56.8,87.5,56.8z"/>
	</g>
</g>
</svg>
